<svg width="25" height="26" viewBox="0 0 25 26" fill="none" xmlns="http://www.w3.org/2000/svg">
<path d="M21.75 18.8843V7.88428C21.75 5.81321 20.0711 4.13428 18 4.13428H7C4.92893 4.13428 3.25 5.81321 3.25 7.88428V18.8843C3.25 20.9553 4.92893 22.6343 7 22.6343H18C20.0711 22.6343 21.75 20.9553 21.75 18.8843Z" stroke="#7F7A87" stroke-width="1.5"/>
<path d="M7.08203 11.6733C6.80157 11.6733 6.57422 11.446 6.57422 11.1655C6.57422 10.8851 6.80157 10.6577 7.08203 10.6577H7.16406C7.44452 10.6577 7.67188 10.8851 7.67188 11.1655C7.67188 11.446 7.44452 11.6733 7.16406 11.6733H7.08203ZM7.12305 16.3843C6.81994 16.3843 6.57422 16.1386 6.57422 15.8354V12.7847C6.57422 12.4816 6.81994 12.2358 7.12305 12.2358C7.42616 12.2358 7.67188 12.4816 7.67188 12.7847V15.8354C7.67188 16.1386 7.42616 16.3843 7.12305 16.3843Z" fill="#7F7A87"/>
<path d="M8.29422 13.5562C8.29422 12.9728 8.38146 12.4832 8.55594 12.0874C8.68615 11.7957 8.86323 11.534 9.08719 11.3022C9.31375 11.0705 9.56115 10.8986 9.82938 10.7866C10.1861 10.6356 10.5976 10.5601 11.0638 10.5601C11.9075 10.5601 12.582 10.8218 13.0872 11.3452C13.595 11.8687 13.8489 12.5965 13.8489 13.5288C13.8489 14.4533 13.5976 15.1772 13.095 15.7007C12.5924 16.2215 11.9205 16.4819 11.0794 16.4819C10.2278 16.4819 9.55073 16.2228 9.04813 15.7046C8.54552 15.1838 8.29422 14.4676 8.29422 13.5562ZM9.48563 13.5171C9.48563 14.1655 9.63536 14.6577 9.93484 14.9937C10.2343 15.327 10.6145 15.4937 11.0755 15.4937C11.5364 15.4937 11.914 15.3283 12.2083 14.9976C12.5052 14.6642 12.6536 14.1655 12.6536 13.5015C12.6536 12.8452 12.5091 12.3556 12.22 12.0327C11.9335 11.7098 11.552 11.5483 11.0755 11.5483C10.5989 11.5483 10.2148 11.7124 9.92313 12.0405C9.63146 12.366 9.48563 12.8582 9.48563 13.5171Z" fill="#7F7A87"/>
<path d="M14.3064 15.1006C14.2047 14.791 14.4487 14.4951 14.7731 14.4635C15.0748 14.4342 15.3315 14.6513 15.4697 14.9211C15.5365 15.0515 15.619 15.159 15.7173 15.2437C15.9257 15.4207 16.2056 15.5093 16.5572 15.5093C16.9296 15.5093 17.2095 15.4312 17.397 15.2749C17.5871 15.116 17.6822 14.9312 17.6822 14.7202C17.6822 14.5848 17.6418 14.4702 17.5611 14.3765C17.483 14.2801 17.3449 14.1968 17.147 14.1265C17.0116 14.0796 16.703 13.9963 16.2213 13.8765C15.6015 13.7228 15.1666 13.534 14.9166 13.3101C14.565 12.995 14.3892 12.6108 14.3892 12.1577C14.3892 11.866 14.4713 11.5939 14.6353 11.3413C14.802 11.0861 15.0403 10.8921 15.3502 10.7593C15.6627 10.6265 16.039 10.5601 16.4791 10.5601C17.1978 10.5601 17.7382 10.7176 18.1002 11.0327C18.3139 11.2175 18.4681 11.4385 18.5628 11.6957C18.6798 12.0135 18.4017 12.3064 18.0634 12.3213C17.752 12.3349 17.5109 12.0898 17.3234 11.8408C17.2861 11.7913 17.2443 11.7485 17.1978 11.7124C17.0364 11.5822 16.7929 11.5171 16.4673 11.5171C16.1314 11.5171 15.8684 11.5861 15.6783 11.7241C15.5559 11.8127 15.4947 11.9312 15.4947 12.0796C15.4947 12.215 15.552 12.3309 15.6666 12.4272C15.8124 12.5496 16.1666 12.6772 16.7291 12.8101C17.2916 12.9429 17.7069 13.0809 17.9752 13.2241C18.246 13.3647 18.4569 13.5588 18.608 13.8062C18.7616 14.0509 18.8384 14.3543 18.8384 14.7163C18.8384 15.0444 18.7473 15.3517 18.565 15.6382C18.3827 15.9246 18.1249 16.1382 17.7916 16.2788C17.4582 16.4168 17.0429 16.4858 16.5455 16.4858C15.8215 16.4858 15.2655 16.3192 14.8775 15.9858C14.6164 15.7598 14.426 15.4647 14.3064 15.1006Z" fill="#7F7A87"/>
</svg>
