<svg width="26" height="26" viewBox="0 0 26 26" fill="none" xmlns="http://www.w3.org/2000/svg">
<path d="M9 7.38435C11 7.38428 11.7057 8.53057 13.5 8.38428C15.1628 8.2487 15.4 7.38428 17 7.38428C18.6 7.38428 20.5 8.55094 21 9.38428C20.1667 9.71761 18.5 10.9843 18.5 13.3843C18.5 15.7843 20.5 16.8843 21.5 17.3843C20.5 20.3843 18.1 22.8843 16.5 22.8843C14.5 22.8843 14.5 21.8843 13 21.8843C11.5 21.8843 11.5 22.8843 9.5 22.8843C7.5 22.8843 4 18.8843 4 13.3843C4 8.98428 7 7.38443 9 7.38435Z" stroke="#550CE9" stroke-width="1.5"/>
<path d="M13 5.88428V5.38428C13 2.899 15.0147 0.884277 17.5 0.884277V1.38428C17.5 3.86956 15.4853 5.88428 13 5.88428Z" fill="#550CE9"/>
</svg>
