<!-- <svg xmlns="http://www.w3.org/2000/svg">

  <symbol id="router" viewBox="0 0 25 26" width="25" height="26">
  <path d="M12.5 14.1497H8M12.5 14.1497V5.38428M12.5 14.1497H17M8 14.1497H6C4.34315 14.1497 3 15.4928 3 17.1497V18.8843C3 20.5411 4.34315 21.8843 6 21.8843H19C20.6569 21.8843 22 20.5411 22 18.8843V17.1497C22 15.4928 20.6569 14.1497 19 14.1497H17M8 14.1497L5 5.88428M17 14.1497L19.5 5.88428" stroke="#7F7A87" stroke-width="1.5" stroke-linecap="round"/>
<circle cx="18" cy="17.8843" r="1" fill="#7F7A87"/>
</symbol>
</svg -->


<!-- <svg width="25" height="26" viewBox="0 0 25 26" fill="none" xmlns="http://www.w3.org/2000/svg">
<path d="M12.5 14.1497H8M12.5 14.1497V5.38428M12.5 14.1497H17M8 14.1497H6C4.34315 14.1497 3 15.4928 3 17.1497V18.8843C3 20.5411 4.34315 21.8843 6 21.8843H19C20.6569 21.8843 22 20.5411 22 18.8843V17.1497C22 15.4928 20.6569 14.1497 19 14.1497H17M8 14.1497L5 5.88428M17 14.1497L19.5 5.88428" stroke="#7F7A87" stroke-width="1.5" stroke-linecap="round"/>
<circle cx="18" cy="17.8843" r="1" fill="#7F7A87"/>
</svg> -->
<svg xmlns="http://www.w3.org/2000/svg">
  <!-- Interface icons -->
  <symbol id="check" viewBox="0 0 24 24">
    <path d="M12.5 14.1497H8M12.5 14.1497V5.38428M12.5 14.1497H17M8 14.1497H6C4.34315 14.1497 3 15.4928 3 17.1497V18.8843C3 20.5411 4.34315 21.8843 6 21.8843H19C20.6569 21.8843 22 20.5411 22 18.8843V17.1497C22 15.4928 20.6569 14.1497 19 14.1497H17M8 14.1497L5 5.88428M17 14.1497L19.5 5.88428" stroke="#7F7A87" stroke-width="1.5" stroke-linecap="round"/>
    <circle cx="18" cy="17.8843" r="1" fill="#7F7A87"/>
  </symbol>
</svg>