<svg width="25" height="26" viewBox="0 0 25 26" fill="none" xmlns="http://www.w3.org/2000/svg">
<path d="M6 9.88419V19.8842C6 20.4365 6.44772 20.8842 7 20.8842H17C17.5523 20.8842 18 20.4365 18 19.8842V9.88419M6 9.88419H18M6 9.88419V9.58419M18 9.88419V9.58419M6 9.58419V9.38419C6 6.34663 9.018 3.8807 12.0556 3.8807C15.0931 3.8807 18 6.34663 18 9.38419V9.58419M6 9.58419C6 9.74988 6.13431 9.88419 6.3 9.88419H17.7C17.8657 9.88419 18 9.74988 18 9.58419" stroke="#7F7A87" stroke-width="1.5"/>
<path d="M8.91441 4.7088L7.43164 3.03857M15.7104 4.7088L17.0943 3.03862" stroke="#7F7A87" stroke-width="1.5" stroke-linecap="round"/>
<path d="M3 11.3843V18.3843C3 19.2127 3.67157 19.8843 4.5 19.8843C5.32843 19.8843 6 19.2127 6 18.3843V11.3843C6 10.5559 5.32843 9.88428 4.5 9.88428C3.67157 9.88428 3 10.5559 3 11.3843Z" stroke="#7F7A87" stroke-width="1.5"/>
<path d="M18 11.3843V18.3843C18 19.2127 18.6716 19.8843 19.5 19.8843C20.3284 19.8843 21 19.2127 21 18.3843V11.3843C21 10.5559 20.3284 9.88428 19.5 9.88428C18.6716 9.88428 18 10.5559 18 11.3843Z" stroke="#7F7A87" stroke-width="1.5"/>
<path d="M13 20.8843V23.3843C13 24.2127 13.6716 24.8843 14.5 24.8843V24.8843C15.3284 24.8843 16 24.2127 16 23.3843V20.8843" stroke="#7F7A87" stroke-width="1.5"/>
<path d="M8 20.8843V23.3843C8 24.2127 8.67157 24.8843 9.5 24.8843V24.8843C10.3284 24.8843 11 24.2127 11 23.3843V20.8843" stroke="#7F7A87" stroke-width="1.5"/>
<circle cx="9.90692" cy="7.24042" r="0.665466" fill="#7F7A87"/>
<circle cx="14.3536" cy="7.24042" r="0.665466" fill="#7F7A87"/>
</svg>
