<svg width="25" height="26" viewBox="0 0 25 26" fill="none" xmlns="http://www.w3.org/2000/svg">
<path d="M15.6378 6.20289H20.3932C20.9455 6.20289 21.3932 6.65061 21.3932 7.20289V10.8235H19.0019C17.6365 10.8235 16.5295 11.9304 16.5295 13.2959C16.5295 14.6614 17.6365 15.7683 19.0019 15.7683H21.3932V19.632C21.3932 20.1843 20.9455 20.632 20.3932 20.632H15.6378V21.929C15.6378 23.3616 14.4765 24.523 13.0438 24.523C11.6112 24.523 10.4499 23.3616 10.4499 21.929V20.632H6.58614C6.03385 20.632 5.58614 20.1843 5.58614 19.632V15.7683H4.65391C3.28845 15.7683 2.18152 14.6614 2.18152 13.2959C2.18152 11.9304 3.28845 10.8235 4.65392 10.8235H5.58614V7.20289C5.58614 6.65061 6.03385 6.20289 6.58614 6.20289H10.4499V5.06811C10.4499 3.63549 11.6112 2.47412 13.0438 2.47412C14.4765 2.47412 15.6378 3.63549 15.6378 5.06811V6.20289Z" stroke="#7F7A87" stroke-width="1.5" stroke-linecap="round"/>
</svg>
