<svg width="137" height="16" viewBox="0 0 137 16" fill="none" xmlns="http://www.w3.org/2000/svg">
<g clip-path="url(#clip0_507_19)">
<path d="M4.136 8.68795V12.958H1V0.183105H5.76814C6.72038 0.183105 7.53828 0.289737 8.22184 0.503001C8.9054 0.716264 9.46824 1.01005 9.91036 1.38437C10.3433 1.74568 10.6789 2.19928 10.8893 2.70758C11.0994 3.21624 11.2045 3.76567 11.2048 4.35587C11.2048 4.99316 11.0966 5.57769 10.8803 6.10948C10.6694 6.63363 10.329 7.10256 9.88747 7.47722C9.44181 7.85725 8.87739 8.15384 8.19421 8.36699C7.51103 8.58013 6.70234 8.68676 5.76814 8.68688L4.136 8.68795ZM4.136 6.4528H5.7689C6.5849 6.4528 7.17241 6.26868 7.5314 5.90045C7.8904 5.53222 8.06984 5.01777 8.06971 4.35712C8.06971 4.0647 8.02329 3.79881 7.93045 3.55944C7.84155 3.32557 7.69715 3.11405 7.50832 2.94111C7.31911 2.76885 7.08102 2.63587 6.79405 2.54218C6.50707 2.44848 6.16536 2.40169 5.7689 2.40181H4.136V6.4528Z" fill="#020122"/>
<path d="M16.5217 3.7251C17.2507 3.7251 17.9155 3.83328 18.5162 4.04964C19.1169 4.26601 19.6318 4.57595 20.0609 4.97947C20.4908 5.38287 20.8251 5.87246 21.0637 6.44823C21.3024 7.02401 21.4215 7.67131 21.421 8.39013C21.421 9.11492 21.3019 9.76812 21.0637 10.3497C20.8256 10.9314 20.4913 11.4252 20.0609 11.8312C19.6308 12.2377 19.1159 12.5504 18.5162 12.7694C17.9165 12.9884 17.2517 13.0981 16.5217 13.0984C15.7853 13.0984 15.1157 12.9889 14.5129 12.7698C13.91 12.5507 13.3905 12.2379 12.9543 11.8316C12.5181 11.4254 12.1809 10.9316 11.9428 10.3501C11.7046 9.7686 11.5857 9.11528 11.5859 8.39013C11.5859 7.67107 11.705 7.02377 11.943 6.44823C12.181 5.87269 12.5182 5.38311 12.9545 4.97947C13.3904 4.57642 13.91 4.26648 14.513 4.04964C15.1161 3.8328 15.7857 3.72462 16.5217 3.7251ZM16.5217 11.0814C17.1829 11.0814 17.6699 10.8609 17.9826 10.4198C18.2953 9.97876 18.4517 9.30815 18.4517 8.40801C18.4517 7.50799 18.2954 6.83876 17.983 6.40031C17.6705 5.96186 17.1835 5.74234 16.5217 5.74174C15.8406 5.74174 15.3423 5.96097 15.0269 6.39942C14.7116 6.83786 14.5539 7.5074 14.5539 8.40801C14.5539 9.30815 14.7116 9.979 15.0269 10.4205C15.3423 10.8621 15.8406 11.0826 16.5217 11.0822V11.0814Z" fill="#020122"/>
<path d="M29.9368 6.02256C29.8628 6.11014 29.7787 6.18961 29.6861 6.25949C29.6058 6.31796 29.4912 6.34711 29.3432 6.34711C29.2079 6.34892 29.0746 6.31558 28.958 6.25073C28.8434 6.18636 28.715 6.11483 28.5727 6.03615C28.4132 5.95003 28.2456 5.87819 28.0719 5.82158C27.8802 5.75756 27.6421 5.7255 27.3576 5.72538C27.0051 5.72538 26.7004 5.78671 26.4437 5.90938C26.1883 6.03111 25.9696 6.21211 25.8084 6.43544C25.6415 6.66361 25.5177 6.94273 25.4371 7.27282C25.3565 7.60291 25.3164 7.97549 25.3168 8.39058C25.3168 9.26163 25.4946 9.93092 25.8502 10.3985C26.2058 10.866 26.6959 11.0998 27.3205 11.0998C27.6546 11.0998 27.919 11.0603 28.1139 10.9814C28.2897 10.9125 28.4563 10.8242 28.6102 10.7184C28.7464 10.6219 28.8716 10.5325 28.9858 10.4501C29.0999 10.3678 29.2438 10.3269 29.4172 10.3275C29.6461 10.3275 29.8193 10.4064 29.9368 10.5644L30.7718 11.5377C30.4751 11.8595 30.1628 12.121 29.8348 12.3221C29.5206 12.5175 29.1827 12.6765 28.8284 12.7958C28.4929 12.908 28.1462 12.9872 27.7936 13.0324C27.4585 13.0753 27.1209 13.0972 26.7828 13.098C26.2048 13.0998 25.6323 12.9926 25.0988 12.7826C24.5661 12.5737 24.0856 12.2617 23.6884 11.8665C23.2835 11.466 22.9619 10.9735 22.7234 10.3892C22.485 9.8048 22.366 9.13855 22.3662 8.3904C22.3662 7.7357 22.4695 7.12339 22.6761 6.55346C22.8828 5.98352 23.1889 5.48976 23.5946 5.07218C23.9995 4.65495 24.5005 4.32611 25.0977 4.08567C25.6948 3.84523 26.386 3.72536 27.1712 3.72608C27.9257 3.72608 28.5875 3.8401 29.1566 4.06815C29.7258 4.29619 30.2392 4.62926 30.6968 5.06735L29.9368 6.02256Z" fill="#020122"/>
<path d="M37.5534 4.54986C37.698 4.34314 37.8938 4.17297 38.1239 4.05419C38.3515 3.93126 38.6091 3.86631 38.8713 3.86572H41.1441L39.1209 7.17107C38.9665 7.41664 38.8088 7.61536 38.6478 7.76723C38.4818 7.92242 38.2824 8.04206 38.0632 8.11806C38.3785 8.21772 38.6351 8.35802 38.8331 8.53898C39.031 8.71994 39.2072 8.94793 39.3617 9.22294L41.3751 12.9578H39.3903C39.1676 12.9606 38.9452 12.9415 38.7267 12.9009C38.5504 12.8672 38.3801 12.8097 38.2212 12.7302C38.0762 12.6569 37.9446 12.5621 37.8316 12.4492C37.7148 12.3317 37.6121 12.2024 37.5254 12.0635L36.5037 9.77475C36.4108 9.57019 36.2762 9.41975 36.0997 9.32343C35.9232 9.22711 35.7208 9.17889 35.4923 9.17877H34.7686V12.9574H31.8926V3.86644H34.7686V7.46986H35.3629C35.6226 7.46986 35.8159 7.43047 35.9427 7.35167C36.0694 7.27287 36.1823 7.13983 36.2814 6.95256L37.5534 4.54986Z" fill="#020122"/>
<path d="M46.5061 3.7251C47.2352 3.7251 47.9002 3.83328 48.501 4.04964C49.1018 4.26601 49.6167 4.57595 50.0457 4.97947C50.4755 5.38287 50.8098 5.87246 51.0485 6.44823C51.2873 7.02401 51.4063 7.67131 51.4056 8.39013C51.4056 9.11492 51.2866 9.76812 51.0485 10.3497C50.8105 10.9314 50.4762 11.4252 50.0457 11.8312C49.6154 12.2377 49.1005 12.5504 48.501 12.7694C47.9014 12.9884 47.2365 13.098 46.5061 13.0981C45.7699 13.0981 45.1004 12.9885 44.4974 12.7694C43.8945 12.5503 43.3749 12.2376 42.9387 11.8312C42.5027 11.4251 42.1657 10.9312 41.9275 10.3497C41.6894 9.76824 41.5703 9.11504 41.5703 8.39013C41.5703 7.67107 41.6894 7.02377 41.9275 6.44823C42.1657 5.8727 42.5027 5.38311 42.9387 4.97947C43.3746 4.57643 43.8942 4.26648 44.4974 4.04964C45.1006 3.8328 45.7702 3.72462 46.5061 3.7251ZM46.5061 11.0814C47.1678 11.0814 47.6549 10.8609 47.9672 10.4198C48.2795 9.97876 48.4358 9.30816 48.4359 8.40802C48.4359 7.50799 48.2797 6.83876 47.9672 6.40031C47.6548 5.96186 47.1677 5.74264 46.5061 5.74264C45.8257 5.74264 45.3274 5.96186 45.0113 6.40031C44.6952 6.83876 44.5373 7.50799 44.5375 8.40802C44.5375 9.30816 44.6955 9.979 45.0115 10.4205C45.3275 10.8621 45.8258 11.0826 46.5063 11.0822L46.5061 11.0814Z" fill="#020122"/>
<path d="M58.6133 8.94218C58.706 8.69685 58.8049 8.45569 58.91 8.2187C59.0101 7.99172 59.1248 7.77077 59.2536 7.5571L60.8861 4.44576C61.0223 4.20615 61.1878 4.04832 61.3826 3.97227C61.5692 3.89787 61.7695 3.8591 61.972 3.85819H64.3837V12.9597H61.7862V8.65286C61.7862 8.43077 61.797 8.18091 61.8187 7.90328C61.8387 7.63709 61.8744 7.37216 61.9254 7.10971L59.5781 11.4148C59.4049 11.7128 59.1359 11.8618 58.7711 11.8618H58.4649C58.1004 11.8618 57.8313 11.7128 57.6578 11.4148L55.2926 7.08342C55.3422 7.34067 55.3809 7.61098 55.4086 7.89434C55.4364 8.17769 55.4503 8.43036 55.4504 8.65232V12.9572H52.8525V3.85693H55.2648C55.4677 3.85799 55.6682 3.89827 55.854 3.97531C56.0485 4.05458 56.214 4.21098 56.3503 4.44451L57.9739 7.55674C58.2184 8.00505 58.432 8.46782 58.6133 8.94218Z" fill="#020122"/>
<path d="M73.4015 6.02261C73.3275 6.11011 73.2434 6.18957 73.1508 6.25954C73.0705 6.31795 72.9561 6.34716 72.8078 6.34716C72.6724 6.34903 72.5392 6.31568 72.4226 6.25078C72.308 6.1864 72.1797 6.11488 72.0375 6.0362C71.8779 5.95008 71.7102 5.87824 71.5365 5.82163C71.3449 5.75761 71.1068 5.72554 70.8224 5.72543C70.47 5.72543 70.1653 5.78676 69.9083 5.90942C69.6529 6.0312 69.4343 6.2122 69.273 6.43549C69.1061 6.66365 68.9824 6.94278 68.9019 7.27287C68.8214 7.60296 68.7814 7.97548 68.7818 8.39044C68.7818 9.2615 68.9596 9.93079 69.3151 10.3983C69.6707 10.8659 70.1609 11.0996 70.7857 11.0996C71.1195 11.0996 71.3838 11.0602 71.5787 10.9813C71.7546 10.9125 71.9213 10.8242 72.0752 10.7182C72.2111 10.6218 72.3363 10.5324 72.4507 10.45C72.5652 10.3676 72.709 10.3267 72.8823 10.3273C73.1109 10.3273 73.2841 10.4063 73.4019 10.5643L74.2369 11.5375C73.9401 11.8594 73.6277 12.1209 73.2997 12.322C72.9856 12.5174 72.6477 12.6765 72.2933 12.7957C71.9579 12.9078 71.6113 12.9871 71.2587 13.0322C70.9236 13.0752 70.5858 13.0971 70.2476 13.0979C69.6696 13.0997 69.0971 12.9925 68.5636 12.7824C68.0308 12.5737 67.5504 12.2616 67.1532 11.8664C66.7484 11.4658 66.4268 10.9734 66.1883 10.389C65.9497 9.80467 65.8303 9.13848 65.8301 8.39044C65.8301 7.73575 65.9337 7.12344 66.1409 6.55351C66.3482 5.98357 66.6545 5.48963 67.0599 5.07169C67.4649 4.65446 67.9659 4.32562 68.563 4.08518C69.1602 3.84474 69.8512 3.72487 70.636 3.72559C71.3906 3.72559 72.0524 3.83961 72.6214 4.06766C73.1904 4.2957 73.7038 4.62877 74.1616 5.06686L73.4015 6.02261Z" fill="#758CDA"/>
<path d="M75.3589 3.86621H79.3851C80.0038 3.86621 80.5419 3.92176 80.9994 4.03286C81.4569 4.14396 81.8359 4.29894 82.1362 4.49777C82.4359 4.69626 82.6585 4.93163 82.8039 5.20391C82.9505 5.47989 83.0255 5.78488 83.0226 6.09367C83.0217 6.29902 82.9952 6.50356 82.9437 6.70307C82.8891 6.91516 82.7964 7.11685 82.6698 7.29941C82.54 7.4893 82.3622 7.66323 82.1364 7.82118C81.9106 7.97913 81.6214 8.10192 81.2689 8.18953C81.5495 8.25051 81.8219 8.34171 82.0806 8.46133C82.32 8.57065 82.5393 8.71553 82.7301 8.89048C82.9121 9.0594 83.0571 9.26051 83.1568 9.48234C83.2586 9.70729 83.3097 9.96299 83.3101 10.2494C83.3101 10.7347 83.2018 11.1482 82.9854 11.4897C82.7723 11.8282 82.4784 12.1149 82.1273 12.3271C81.7716 12.5432 81.3664 12.7024 80.9118 12.8047C80.4544 12.9073 79.9858 12.9588 79.5156 12.9581H75.3604L75.3589 3.86621ZM78.0865 7.57496H79.3018C79.6543 7.57496 79.9419 7.47416 80.1646 7.27258C80.3874 7.071 80.4988 6.81226 80.4988 6.49636C80.4983 6.38333 80.4795 6.27103 80.443 6.16341C80.4047 6.05058 80.3378 5.94827 80.2483 5.86533C80.1552 5.77748 80.0314 5.70595 79.877 5.65076C79.7226 5.59556 79.5309 5.56779 79.3018 5.56743H78.0865V7.57496ZM78.0865 9.1882V11.1691H79.4965C79.8553 11.1691 80.1398 11.0772 80.3501 10.8935C80.5603 10.7098 80.6655 10.46 80.6657 10.1439C80.6662 10.0201 80.6522 9.89653 80.6238 9.7756C80.5973 9.66136 80.5398 9.55561 80.457 9.46875C80.3731 9.38114 80.2539 9.31224 80.0995 9.26205C79.9452 9.21186 79.7441 9.18707 79.4965 9.18766L78.0865 9.1882Z" fill="#758CDA"/>
<path d="M89.2198 3.7251C89.9489 3.7251 90.6138 3.83328 91.2147 4.04964C91.8155 4.26601 92.3304 4.57595 92.7594 4.97947C93.1889 5.38287 93.5232 5.87246 93.7622 6.44823C94.0013 7.02401 94.1203 7.67131 94.1195 8.39013C94.1195 9.11492 94.0004 9.76812 93.7622 10.3497C93.5241 10.9314 93.1898 11.4252 92.7594 11.8312C92.3291 12.2377 91.8142 12.5504 91.2147 12.7694C90.6151 12.9884 89.9502 13.098 89.2198 13.0981C88.4838 13.0981 87.8142 12.9885 87.2111 12.7694C86.608 12.5503 86.0886 12.2373 85.6528 11.8305C85.2168 11.4243 84.8798 10.9306 84.6416 10.3492C84.4034 9.76783 84.2843 9.1148 84.2842 8.39013C84.2842 7.67131 84.4033 7.02401 84.6416 6.44823C84.8799 5.87246 85.2169 5.38287 85.6528 4.97947C86.0887 4.57643 86.6083 4.26648 87.2115 4.04964C87.8147 3.8328 88.4841 3.72462 89.2198 3.7251ZM89.2198 11.0814C89.8814 11.0814 90.3684 10.8609 90.6807 10.4198C90.993 9.97876 91.1493 9.30816 91.1496 8.40802C91.1496 7.50799 90.9933 6.83876 90.6807 6.40031C90.3681 5.96186 89.8812 5.74264 89.2198 5.74264C88.5394 5.74264 88.0415 5.96186 87.7262 6.40031C87.4108 6.83876 87.2528 7.50799 87.2522 8.40802C87.2522 9.30816 87.4102 9.979 87.7262 10.4205C88.0421 10.8621 88.54 11.0826 89.2198 11.0822V11.0814Z" fill="#758CDA"/>
<path d="M100.937 2.6034C100.405 2.63273 99.9489 2.72213 99.5686 2.87162C99.1883 3.02111 98.8745 3.22412 98.6271 3.48066C98.3752 3.74471 98.1839 4.05521 98.0653 4.3926C97.9383 4.74319 97.8626 5.13187 97.8383 5.55863C97.9985 5.36003 98.1819 5.17918 98.3851 5.01951C98.6031 4.84853 98.8432 4.70434 99.0996 4.59036C99.3772 4.46663 99.668 4.3712 99.9671 4.3057C100.3 4.23333 100.641 4.19798 100.983 4.20038C101.62 4.20038 102.195 4.30701 102.709 4.52027C103.211 4.72596 103.659 5.03393 104.021 5.4222C104.382 5.81082 104.661 6.27692 104.856 6.82051C105.05 7.3641 105.148 7.96926 105.148 8.63599C105.148 9.32597 105.029 9.94585 104.791 10.4956C104.553 11.0454 104.219 11.513 103.788 11.8984C103.359 12.2843 102.844 12.5809 102.244 12.7884C101.644 12.9958 100.978 13.0993 100.248 13.0988C99.5119 13.0988 98.8409 12.9878 98.2345 12.7657C97.6281 12.5436 97.1072 12.19 96.6716 11.7049C96.2357 11.2199 95.8986 10.5945 95.6605 9.82885C95.4223 9.06318 95.3032 8.13335 95.3032 7.03938C95.3032 6.13947 95.3915 5.2931 95.5681 4.50024C95.7447 3.70739 96.0427 3.00871 96.462 2.4042C96.8794 1.79934 97.4329 1.30981 98.1227 0.935619C98.8124 0.561425 99.6705 0.342201 100.697 0.277948L104.102 0.059082L104.26 1.42664C104.29 1.71274 104.244 1.95676 104.12 2.1587C103.997 2.36063 103.777 2.46739 103.461 2.47895L100.937 2.6034ZM100.25 11.178C100.912 11.178 101.399 10.9691 101.712 10.5513C102.024 10.1334 102.18 9.49781 102.18 8.6444C102.18 7.79122 102.024 7.15704 101.712 6.74184C101.399 6.32663 100.912 6.11921 100.25 6.11957C99.5636 6.11957 99.0627 6.32568 98.7476 6.7379C98.4325 7.15012 98.2745 7.77984 98.2737 8.62705C98.2737 9.48642 98.4317 10.1265 98.7476 10.5473C99.0636 10.9681 99.5645 11.1783 100.25 11.178Z" fill="#758CDA"/>
<path d="M111.059 3.7251C111.788 3.7251 112.453 3.83328 113.054 4.04964C113.654 4.26601 114.169 4.57595 114.598 4.97947C115.028 5.38287 115.362 5.87246 115.601 6.44823C115.84 7.02401 115.959 7.67131 115.958 8.39013C115.958 9.11492 115.839 9.76812 115.601 10.3497C115.363 10.9314 115.028 11.4252 114.598 11.8312C114.168 12.2377 113.653 12.5504 113.053 12.7694C112.454 12.9884 111.789 13.098 111.059 13.0981C110.322 13.0981 109.653 12.9885 109.05 12.7694C108.447 12.5503 107.927 12.2376 107.491 11.8312C107.055 11.4251 106.718 10.9312 106.48 10.3497C106.242 9.76824 106.123 9.11504 106.123 8.39013C106.123 7.67107 106.242 7.02377 106.48 6.44823C106.718 5.8727 107.056 5.38311 107.492 4.97947C107.928 4.57643 108.447 4.26648 109.05 4.04964C109.653 3.8328 110.323 3.72462 111.059 3.7251ZM111.059 11.0814C111.721 11.0814 112.207 10.8609 112.52 10.4198C112.832 9.97876 112.989 9.30816 112.989 8.40802C112.989 7.50799 112.832 6.83876 112.52 6.40031C112.207 5.96186 111.72 5.74264 111.059 5.74264C110.379 5.74264 109.88 5.96186 109.564 6.40031C109.248 6.83876 109.091 7.50799 109.093 8.40802C109.093 9.30816 109.251 9.979 109.566 10.4205C109.881 10.8621 110.379 11.0826 111.059 11.0822V11.0814Z" fill="#758CDA"/>
<path d="M126.228 3.86626V11.012H128V15.1672C128 15.4007 127.924 15.5877 127.773 15.7281C127.622 15.8686 127.428 15.9387 127.192 15.9386H125.383V12.9576H118.972V15.203C118.972 15.2954 118.957 15.3872 118.926 15.4749C118.895 15.5621 118.846 15.6426 118.782 15.7117C118.714 15.7837 118.63 15.8406 118.536 15.8782C118.424 15.9216 118.304 15.9425 118.183 15.9395H116.356V11.0903H116.682C116.882 11.0851 117.082 11.0556 117.275 11.0027C117.467 10.9501 117.651 10.8405 117.827 10.674C118.003 10.5075 118.168 10.2649 118.323 9.94624C118.478 9.62759 118.619 9.20238 118.746 8.67059C118.873 8.1388 118.985 7.48119 119.084 6.69775C119.183 5.91455 119.264 4.97054 119.326 3.86572L126.228 3.86626ZM121.673 5.87468C121.561 7.16666 121.397 8.23458 121.181 9.07846C120.964 9.92233 120.711 10.5929 120.42 11.0903H123.445V5.87432L121.673 5.87468Z" fill="#758CDA"/>
<path d="M135.682 12.9578C135.41 12.9578 135.204 12.9227 135.065 12.8526C134.925 12.7825 134.809 12.6362 134.717 12.4137L134.513 11.9141C134.271 12.1072 134.04 12.2767 133.817 12.4228C133.599 12.5665 133.367 12.6912 133.126 12.7954C132.882 12.8992 132.627 12.9756 132.365 13.0232C132.07 13.0751 131.77 13.1001 131.47 13.0978C131.03 13.0978 130.631 13.0438 130.273 12.9358C129.914 12.8278 129.61 12.6685 129.359 12.4578C129.104 12.242 128.906 11.9735 128.779 11.6734C128.643 11.3606 128.575 10.9995 128.575 10.5901C128.575 10.2683 128.662 9.93812 128.835 9.59969C129.008 9.26126 129.308 8.95292 129.735 8.67469C130.161 8.39706 130.736 8.1646 131.46 7.97732C132.184 7.79005 133.096 7.68479 134.197 7.66154V7.27584C134.197 6.74406 134.081 6.35973 133.849 6.12286C133.617 5.88599 133.288 5.76768 132.861 5.76792C132.521 5.76792 132.242 5.80297 132.026 5.87306C131.826 5.93658 131.632 6.01577 131.446 6.10981C131.276 6.19778 131.111 6.2767 130.95 6.34655C130.789 6.41641 130.597 6.45146 130.375 6.4517C130.177 6.4517 130.01 6.40497 129.874 6.31151C129.741 6.22147 129.628 6.10835 129.54 5.9782L129.02 5.12777C129.585 4.6522 130.242 4.28457 130.955 4.04524C131.663 3.80849 132.422 3.69006 133.233 3.68994C133.814 3.68994 134.338 3.77935 134.805 3.95816C135.272 4.13697 135.668 4.38534 135.993 4.70327C136.318 5.02192 136.567 5.40034 136.74 5.83855C136.914 6.27676 137.001 6.75609 137 7.27656V12.958L135.682 12.9578ZM132.379 11.3007C132.75 11.3007 133.074 11.2393 133.353 11.1166C133.631 10.9938 133.913 10.795 134.197 10.5204V9.2578C133.622 9.28081 133.149 9.32754 132.778 9.39799C132.408 9.46844 132.114 9.55624 131.897 9.66138C131.681 9.76652 131.531 9.88627 131.447 10.0206C131.364 10.1533 131.321 10.3049 131.322 10.4591C131.322 10.769 131.411 10.9867 131.591 11.1123C131.77 11.2378 132.033 11.3004 132.38 11.3L132.379 11.3007Z" fill="#758CDA"/>
</g>
<defs>
<clipPath id="clip0_507_19">
<rect width="136" height="15.8782" fill="white" transform="translate(0.5 0.0610352)"/>
</clipPath>
</defs>
</svg>
