<svg width="141" height="43" viewBox="0 0 141 43" fill="none" xmlns="http://www.w3.org/2000/svg">
<path fill-rule="evenodd" clip-rule="evenodd" d="M74.4826 12.478C76.0263 12.478 77.279 13.6693 77.279 15.1377L77.279 28.5383C77.279 30.0051 76.0263 31.1948 74.4826 31.1948H57.6993C56.154 31.1948 54.9029 30.0051 54.9029 28.5383L54.9028 15.1377C54.9028 13.6693 56.1539 12.478 57.6993 12.478H74.4826ZM66.0891 25.2016C66.0891 25.2016 61.7237 21.8736 61.7237 20.0447C61.722 19.7383 61.7841 19.4346 61.9064 19.1512C62.0286 18.8678 62.2087 18.6103 62.4362 18.3936C62.6636 18.1769 62.9339 18.0054 63.2314 17.8889C63.5289 17.7724 63.8477 17.7132 64.1693 17.7149C64.5466 17.7163 64.9181 17.804 65.2525 17.9705C65.5869 18.1371 65.8744 18.3777 66.091 18.6721C66.3075 18.3777 66.595 18.1371 66.9294 17.9705C67.2638 17.804 67.6353 17.7163 68.0126 17.7149C68.3342 17.7132 68.653 17.7724 68.9505 17.8889C69.248 18.0054 69.5183 18.1769 69.7458 18.3936C69.9732 18.6103 70.1533 18.8678 70.2756 19.1512C70.3978 19.4346 70.4599 19.7383 70.4582 20.0447C70.4563 21.8718 66.0891 25.198 66.0891 25.198V25.2016Z" fill="#5B0BFE"/>
<path d="M60.4208 8.50115C60.4208 7.32522 60.8847 6.19746 61.7105 5.36595C62.5363 4.53445 63.6564 4.06731 64.8242 4.06731H67.6713C68.8391 4.06731 69.9592 4.53445 70.785 5.36595C71.6108 6.19746 72.0747 7.32522 72.0747 8.50115V9.9824H75.197V7.56469C75.1972 6.76737 75.0414 5.97782 74.7384 5.24116C74.4355 4.50449 73.9914 3.83514 73.4314 3.27135C72.8715 2.70756 72.2068 2.26038 71.4752 1.95536C70.7435 1.65033 69.9594 1.49344 69.1676 1.49365H63.3153C62.5237 1.49386 61.7399 1.65106 61.0087 1.95627C60.2774 2.26148 59.613 2.70873 59.0535 3.27248C58.4939 3.83623 58.05 4.50543 57.7473 5.24189C57.4446 5.97835 57.2889 6.76764 57.2891 7.56469L57.2891 13.3476H60.4113L60.4208 8.50115Z" fill="#5B0BFE"/>
<path d="M4.35384 13.2154L8.28661 25.5778H8.43756L12.3783 13.2154H16.1919L10.5827 29.4867H6.14941L0.532313 13.2154H4.35384ZM18.374 29.4867V13.2154H24.7936C26.0277 13.2154 27.0791 13.4511 27.9477 13.9225C28.8164 14.3886 29.4784 15.0374 29.934 15.869C30.3948 16.6953 30.6252 17.6487 30.6252 18.7292C30.6252 19.8097 30.3921 20.7631 29.926 21.5894C29.4599 22.4157 28.7846 23.0592 27.9 23.52C27.0208 23.9808 25.9562 24.2112 24.7062 24.2112H20.6145V21.4543H24.15C24.8121 21.4543 25.3576 21.3404 25.7867 21.1127C26.221 20.8796 26.5441 20.5592 26.756 20.1514C26.9731 19.7382 27.0817 19.2642 27.0817 18.7292C27.0817 18.1889 26.9731 17.7175 26.756 17.315C26.5441 16.9072 26.221 16.592 25.7867 16.3695C25.3524 16.1418 24.8015 16.0279 24.1341 16.0279H21.8142V29.4867H18.374ZM46.6932 13.2154V29.4867H43.7217L36.6428 19.2456H36.5236V29.4867H33.0834V13.2154H36.1025L43.1259 23.4485H43.2689V13.2154H46.6932Z" fill="#0E0228"/>
<path d="M85.0158 29.4867V13.2154H88.4559V26.6503H95.4316V29.4867H85.0158ZM111.581 21.351C111.581 23.1254 111.245 24.635 110.572 25.8797C109.905 27.1244 108.994 28.0751 107.839 28.7319C106.69 29.3834 105.397 29.7092 103.962 29.7092C102.516 29.7092 101.218 29.3808 100.069 28.724C98.9196 28.0672 98.0112 27.1164 97.3438 25.8717C96.6764 24.627 96.3428 23.1201 96.3428 21.351C96.3428 19.5767 96.6764 18.0671 97.3438 16.8224C98.0112 15.5777 98.9196 14.6296 100.069 13.9781C101.218 13.3213 102.516 12.9929 103.962 12.9929C105.397 12.9929 106.69 13.3213 107.839 13.9781C108.994 14.6296 109.905 15.5777 110.572 16.8224C111.245 18.0671 111.581 19.5767 111.581 21.351ZM108.093 21.351C108.093 20.2017 107.921 19.2324 107.577 18.4432C107.238 17.654 106.759 17.0555 106.139 16.6476C105.519 16.2398 104.794 16.0359 103.962 16.0359C103.13 16.0359 102.405 16.2398 101.785 16.6476C101.165 17.0555 100.683 17.654 100.339 18.4432C100 19.2324 99.8306 20.2017 99.8306 21.351C99.8306 22.5004 100 23.4697 100.339 24.2589C100.683 25.0481 101.165 25.6466 101.785 26.0545C102.405 26.4623 103.13 26.6662 103.962 26.6662C104.794 26.6662 105.519 26.4623 106.139 26.0545C106.759 25.6466 107.238 25.0481 107.577 24.2589C107.921 23.4697 108.093 22.5004 108.093 21.351ZM115.704 13.2154L119.637 25.5778H119.788L123.729 13.2154H127.542L121.933 29.4867H117.5L111.883 13.2154H115.704ZM129.053 29.4867V13.2154H140.017V16.0517H132.493V19.9289H139.453V22.7652H132.493V26.6503H140.049V29.4867H129.053Z" fill="#0E0228"/>
</svg>
