<svg width="41" height="40" viewBox="0 0 41 40" fill="none" xmlns="http://www.w3.org/2000/svg">
<path fill-rule="evenodd" clip-rule="evenodd" d="M27.6916 16.803C28.9287 16.803 29.9327 17.7577 29.9327 18.9345L29.9327 29.674C29.9327 30.8495 28.9288 31.8029 27.6916 31.8029H14.2411C13.0027 31.8029 12 30.8495 12 29.674L12 18.9345C12 17.7577 13.0027 16.803 14.2411 16.803H27.6916ZM20.9649 26.9999C20.9649 26.9999 17.4664 24.3328 17.4664 22.8671C17.465 22.6215 17.5148 22.3781 17.6128 22.151C17.7108 21.9239 17.8551 21.7175 18.0373 21.5439C18.2196 21.3702 18.4362 21.2327 18.6747 21.1394C18.9131 21.046 19.1686 20.9986 19.4263 20.9999C19.7287 21.0011 20.0264 21.0713 20.2944 21.2048C20.5624 21.3383 20.7928 21.5311 20.9664 21.7671C21.1399 21.5311 21.3703 21.3383 21.6383 21.2048C21.9063 21.0713 22.204 21.0011 22.5064 20.9999C22.7642 20.9986 23.0197 21.046 23.2581 21.1394C23.4965 21.2327 23.7131 21.3702 23.8954 21.5439C24.0777 21.7175 24.222 21.9239 24.32 22.151C24.418 22.3781 24.4677 22.6215 24.4663 22.8671C24.4648 24.3314 20.9649 26.9971 20.9649 26.9971V26.9999Z" fill="#5B0BFE"/>
<path d="M16.422 13.6159C16.422 12.6735 16.7938 11.7697 17.4556 11.1033C18.1174 10.437 19.015 10.0626 19.9509 10.0626H22.2326C23.1686 10.0626 24.0662 10.437 24.728 11.1033C25.3898 11.7697 25.7616 12.6735 25.7616 13.6159V14.803H28.2638V12.8654C28.264 12.2265 28.1391 11.5937 27.8963 11.0033C27.6536 10.4129 27.2976 9.87651 26.8489 9.42468C26.4002 8.97285 25.8674 8.61447 25.2811 8.37002C24.6948 8.12557 24.0664 7.99983 23.4318 8H18.7416C18.1073 8.00017 17.4791 8.12615 16.8931 8.37075C16.307 8.61535 15.7746 8.97379 15.3261 9.42558C14.8777 9.87738 14.522 10.4137 14.2793 11.0039C14.0367 11.5941 13.9119 12.2267 13.9121 12.8654L13.9121 17.5H16.4143L16.422 13.6159Z" fill="#5B0BFE"/>
</svg>
